<svg id="Capa_1" enable-background="new 0 0 512 512" height="512" viewBox="0 0 512 512" width="512" xmlns="http://www.w3.org/2000/svg"><g><path d="m51.2 443.733c0 37.703 30.564 68.267 68.267 68.267h273.066l17.067-4.164 17.067 4.164h17.065c9.426 0 17.068-7.641 17.068-17.068v-34.121l-10.439-24.804 10.439-39.58v-38.027h-406.509z" fill="#7784ff"/><path d="m443.732 477.866c9.426 0 17.068-7.641 17.068-17.068v-68.266c0 9.426-7.641 17.068-17.068 17.068l-324.265-.001c-18.851 0-34.133 15.282-34.133 34.133s15.282 34.133 34.133 34.133z" fill="#f3f5f9"/><g><g><g><path d="m443.732 409.6h-6.627v51.198c0 9.426-7.641 17.067-17.067 17.067h23.694c9.426 0 17.068-7.641 17.068-17.067v-68.266c0 9.427-7.642 17.068-17.068 17.068z" fill="#e1e6f0"/></g></g></g><path d="m190.233 509.483-13.532-13.532c-3.332-3.332-8.735-3.332-12.068 0l-13.532 13.532c-5.376 5.376-14.567 1.568-14.567-6.034v-59.716h68.266v59.716c0 7.603-9.191 11.41-14.567 6.034z" fill="#f25a3c"/><path d="m437.105 358.4v136.533c0 9.426-7.641 17.067-17.067 17.068h23.694c9.426 0 17.068-7.641 17.068-17.068v-34.128l-10.439-24.798 10.439-39.58v-38.027z" fill="#6270f0"/><path d="m437.105 477.866h6.627c9.424 0 17.064-7.638 17.067-17.061v-68.266c-.003 9.423-7.643 17.061-17.067 17.061h-6.627z" fill="#e1e6f0"/><path d="m181.106 443.733v56.623l9.127 9.127c5.376 5.376 14.567 1.568 14.567-6.034v-59.716z" fill="#e63a3a"/><path d="m460.8 436.007h-374.578c-.575 2.484-.889 5.067-.889 7.726s.314 5.243.889 7.727h374.578z" fill="#cfd7e6"/><path d="m426.666 512h-34.133v-136.534l17.067-4.343 17.066 4.343z" fill="#ffbe40"/><path d="m443.732 0h-17.066l-16.036 2.833-18.097-2.833-273.067.001c-37.702 0-68.266 30.563-68.266 68.266v375.466c0-37.703 30.564-68.266 68.267-68.266h324.276c9.421-.006 17.057-7.645 17.057-17.067v-341.333c-.001-9.426-7.642-17.067-17.068-17.067z" fill="#8db5ff"/><path d="m316.267 102.4h-120.534c-4.418 0-8-3.582-8-8v-35.2c0-4.418 3.582-8 8-8h120.533c4.418 0 8 3.582 8 8v35.2c.001 4.418-3.581 8-7.999 8z" fill="#f3f5f9"/><path d="m316.267 51.2h-23.936c4.552 0 8.241 3.69 8.241 8.242v34.717c0 4.552-3.69 8.241-8.241 8.241h23.936c4.418 0 8-3.582 8-8v-35.2c0-4.418-3.582-8-8-8z" fill="#e1e6f0"/><path d="m443.732 0h-23.693c9.426.001 17.067 7.642 17.067 17.067v341.333c0 9.426-7.641 17.068-17.068 17.068h23.694c9.426 0 17.068-7.641 17.068-17.068v-341.333c-.001-9.426-7.642-17.067-17.068-17.067z" fill="#7784ff"/><path d="m111.74.448v375.466c2.538-.286 5.113-.447 7.727-.447h7.726v-375.466h-7.726c-2.614 0-5.189.161-7.727.447z" fill="#7784ff"/><path d="m392.533.001h34.133v375.466h-34.133z" fill="#ffdf40"/></g></svg>